HIERARCHY
ROOT Hips
{
	OFFSET -0.001795 -0.223333 0.028219
	CHANNELS 6 Xposition Yposition Zposition Zrotation Yrotation Xrotation 
	JOINT LeftUpLeg
	{
		OFFSET 0.069520 -0.091406 -0.006815
		CHANNELS 3 Zrotation Yrotation Xrotation
		JOINT LeftLeg
		{
			OFFSET 0.034277 -0.375199 -0.004496
			CHANNELS 3 Zrotation Yrotation Xrotation
			JOINT LeftFoot
			{
				OFFSET -0.013596 -0.397961 -0.043693
				CHANNELS 3 Zrotation Yrotation Xrotation
				JOINT LeftToe
				{
					OFFSET 0.026358 -0.055791 0.119288
					CHANNELS 3 Zrotation Yrotation Xrotation
					End Site
					{
						OFFSET 0.000000 0.000000 0.000000
					}
				}
			}
		}
	}
	JOINT RightUpLeg
	{
		OFFSET -0.067670 -0.090522 -0.004320
		CHANNELS 3 Zrotation Yrotation Xrotation
		JOINT RightLeg
		{
			OFFSET -0.038290 -0.382569 -0.008850
			CHANNELS 3 Zrotation Yrotation Xrotation
			JOINT RightFoot
			{
				OFFSET 0.015774 -0.398415 -0.042312
				CHANNELS 3 Zrotation Yrotation Xrotation
				JOINT RightToe
				{
					OFFSET -0.025372 -0.048144 0.123348
					CHANNELS 3 Zrotation Yrotation Xrotation
					End Site
					{
						OFFSET 0.000000 0.000000 0.000000
					}
				}
			}
		}
	}
	JOINT Spine
	{
		OFFSET -0.002533 0.108963 -0.026696
		CHANNELS 3 Zrotation Yrotation Xrotation
		JOINT Spine1
		{
			OFFSET 0.005487 0.135180 0.001092
			CHANNELS 3 Zrotation Yrotation Xrotation
			JOINT Spine2
			{
				OFFSET 0.001457 0.052922 0.025425
				CHANNELS 3 Zrotation Yrotation Xrotation
				JOINT Neck
				{
					OFFSET -0.002778 0.213870 -0.042857
					CHANNELS 3 Zrotation Yrotation Xrotation
					JOINT Head
					{
						OFFSET 0.005152 0.064970 0.051349
						CHANNELS 3 Zrotation Yrotation Xrotation
						End Site
						{
							OFFSET 0.000000 0.000000 0.000000
						}
					}
				}
				JOINT LeftShoulder
				{
					OFFSET 0.078845 0.121749 -0.034090
					CHANNELS 3 Zrotation Yrotation Xrotation
					JOINT LeftArm
					{
						OFFSET 0.090977 0.030469 -0.008868
						CHANNELS 3 Zrotation Yrotation Xrotation
						JOINT LeftForeArm
						{
							OFFSET 0.259612 -0.012772 -0.027456
							CHANNELS 3 Zrotation Yrotation Xrotation
							JOINT LeftHand
							{
								OFFSET 0.249234 0.008986 -0.001171
								CHANNELS 3 Zrotation Yrotation Xrotation
								End Site
								{
									OFFSET 0.000000 0.000000 0.000000
								}
							}
						}
					}
				}
				JOINT RightShoulder
				{
					OFFSET -0.081759 0.118833 -0.038615
					CHANNELS 3 Zrotation Yrotation Xrotation
					JOINT RightArm
					{
						OFFSET -0.096012 0.032551 -0.009143
						CHANNELS 3 Zrotation Yrotation Xrotation
						JOINT RightForeArm
						{
							OFFSET -0.253742 -0.013329 -0.021401
							CHANNELS 3 Zrotation Yrotation Xrotation
							JOINT RightHand
							{
								OFFSET -0.255298 0.007772 -0.005559
								CHANNELS 3 Zrotation Yrotation Xrotation
								End Site
								{
									OFFSET 0.000000 0.000000 0.000000
								}
							}
						}
					}
				}
			}
		}
	}
}
MOTION
Frames: 12
Frame Time: 0.050000
-2.105777 0.929049 1.948117 -5.665095 7.912054 0.029731 5.456506 -1.355519 -21.354171 -3.002704 -2.323634 50.049615 5.952241 10.604163 -6.243076 0.000000 0.000000 0.000000 -10.594471 0.048234 -5.743518 1.531902 -0.038181 11.820739 6.691803 9.453533 11.605683 0.000000 0.000000 0.000000 1.131961 -0.507853 8.638179 -2.687420 1.248703 0.907190 5.051509 0.960496 3.341365 -10.272915 7.494076 -17.264332 0.000000 0.000000 0.000000 -34.648151 2.931764 -7.578588 -41.570974 -9.274783 -1.298040 -20.018806 -32.790050 6.878841 0.000000 0.000000 0.000000 27.115300 -2.986785 -3.156313 45.348541 -0.340652 -4.840587 2.190337 15.588875 0.840767 0.000000 0.000000 0.000000 
-2.117801 0.931719 1.962094 -4.618244 13.768799 0.324818 4.054451 -1.982072 -23.026801 -8.564748 -0.036538 41.578755 7.523961 14.539512 -3.557721 0.000000 0.000000 0.000000 -10.271936 -0.128596 -2.697672 1.395558 -0.130027 9.754149 4.519608 5.932093 11.550267 0.000000 0.000000 0.000000 0.681763 -0.570065 9.621835 -2.001495 0.803815 2.166327 2.781646 4.501577 0.993705 -7.944149 6.593458 -16.055398 0.000000 0.000000 0.000000 -32.535253 2.846054 -9.893541 -41.804076 -4.036911 -2.101885 -19.227771 -28.151855 5.173463 0.000000 0.000000 0.000000 28.553623 -4.195744 -1.661253 43.980328 3.249016 -4.095875 2.606356 16.000310 1.037077 0.000000 0.000000 0.000000 
-2.123630 0.930997 1.976702 -4.235130 19.753327 0.415247 4.311260 -2.365965 -24.311077 -10.940193 0.460649 33.333130 9.483485 18.586335 -2.034870 0.000000 0.000000 0.000000 -9.234228 -0.318600 0.506482 1.708649 -0.289072 8.034511 1.414611 0.710687 10.944226 0.000000 0.000000 0.000000 0.355152 -0.554362 9.287962 -1.470703 0.468154 2.182276 2.127626 6.784307 1.086686 -7.796884 6.787662 -13.731266 0.000000 0.000000 0.000000 -32.167791 3.092401 -12.066326 -41.132588 0.860857 -3.138351 -16.731205 -24.506674 3.715012 0.000000 0.000000 0.000000 28.013896 -3.861545 0.565604 42.471562 6.056104 -3.714035 2.389650 16.070806 1.085634 0.000000 0.000000 0.000000 
-2.122631 0.926891 1.991006 -4.230720 25.649859 0.325574 5.888173 -2.512702 -24.962205 -9.070923 -0.114398 24.304155 11.324388 22.239868 1.369162 0.000000 0.000000 0.000000 -8.647668 -0.584699 3.169681 2.455282 -0.545508 7.094629 -0.587398 -2.707497 11.291691 0.000000 0.000000 0.000000 0.689748 -0.650394 9.611523 -1.093684 0.161807 2.501641 -0.042872 8.840429 0.138223 -6.302213 6.027406 -11.785662 0.000000 0.000000 0.000000 -29.659476 3.456179 -13.363282 -40.814686 4.241311 -3.830950 -13.176244 -22.431077 2.453485 0.000000 0.000000 0.000000 28.657414 -3.931022 2.593284 40.534038 9.219619 -3.306998 2.853993 18.553313 1.448707 0.000000 0.000000 0.000000 
-2.113338 0.922318 2.004478 -4.461852 29.080087 -0.107112 8.876562 -2.442247 -25.818945 -6.019185 -0.536535 18.984077 12.653389 25.338504 9.075976 0.000000 0.000000 0.000000 -7.689680 -0.842489 5.782145 1.952505 -0.492113 7.038713 -1.750967 -4.710423 9.683012 0.000000 0.000000 0.000000 0.701683 -0.732452 10.203088 -1.647223 0.593807 0.744390 -0.342675 11.172691 1.592209 -5.436637 5.861352 -12.165625 0.000000 0.000000 0.000000 -28.601825 4.578876 -15.039946 -39.839528 6.870886 -4.474184 -11.273479 -21.699875 1.869883 0.000000 0.000000 0.000000 30.606449 -4.955974 3.993453 36.953204 14.022575 -2.813311 1.120666 21.792373 1.588750 0.000000 0.000000 0.000000 
-2.094524 0.917442 2.016928 -4.558778 34.315033 -1.102555 9.937994 -2.617769 -25.802670 -4.194189 -0.764525 15.931692 13.125098 26.601892 16.266960 0.000000 0.000000 0.000000 -7.692764 -1.359004 9.080010 1.893724 -0.579068 7.079579 -2.472620 -5.785963 11.597947 0.000000 0.000000 0.000000 -0.199738 -0.747647 10.757795 -0.578135 0.163674 0.024153 -1.114830 12.812127 3.257752 -2.354783 4.542747 -12.502256 0.000000 0.000000 0.000000 -27.343173 4.418900 -15.941416 -40.608317 8.681160 -5.140285 -7.909892 -21.708294 1.036794 0.000000 0.000000 0.000000 29.838414 -3.428462 6.775365 36.039153 16.581952 -2.560773 -1.592546 26.878438 1.602214 0.000000 0.000000 0.000000 
-2.061620 0.913019 2.027245 -4.607010 37.222700 -1.546431 10.979912 -2.653760 -25.471494 -6.422202 -0.540864 15.912025 13.886545 27.606179 19.244266 0.000000 0.000000 0.000000 -8.380927 -1.742645 11.060127 0.856862 -0.430686 8.142576 -2.261687 -4.909653 15.140238 0.000000 0.000000 0.000000 -0.934436 -0.712755 10.877613 -1.001871 0.463079 -0.898462 0.180332 15.140124 3.928605 -0.514351 3.749887 -12.476450 0.000000 0.000000 0.000000 -27.129611 5.133094 -17.368183 -39.568569 11.019507 -5.700812 -7.629964 -19.723103 0.835048 0.000000 0.000000 0.000000 29.262737 -4.489448 7.190988 34.949417 20.901400 -1.784495 -3.243336 29.933719 1.683200 0.000000 0.000000 0.000000 
-2.010964 0.910941 2.034474 -4.227196 43.916086 -1.169003 8.881541 -3.178042 -25.411448 -9.945813 -0.528812 16.665414 11.416141 24.773042 15.977653 0.000000 0.000000 0.000000 -8.769603 -2.482360 13.913822 -0.394387 -0.394928 10.093769 -2.961182 -5.180671 19.823271 0.000000 0.000000 0.000000 -0.881507 -0.641998 9.749006 -0.088547 0.067954 -1.295027 0.419313 14.758721 5.127883 0.653080 3.314819 -12.370297 0.000000 0.000000 0.000000 -28.889144 4.034101 -19.270997 -38.729093 13.302896 -5.797800 -5.573034 -19.281488 0.424065 0.000000 0.000000 0.000000 27.125405 -5.345232 6.946282 35.805170 19.895433 -1.859271 -4.066677 34.403590 2.135129 0.000000 0.000000 0.000000 
-1.946500 0.913691 2.038672 -2.512768 51.549374 0.154394 2.342295 -3.241339 -22.201899 -8.630364 -1.021587 15.875219 8.371444 18.962950 9.158178 0.000000 0.000000 0.000000 -10.617524 -3.031280 14.109244 -1.673477 -1.406949 17.838647 -0.669972 -0.690217 27.651158 0.000000 0.000000 0.000000 -2.161697 -0.411409 7.963052 2.815206 -1.189055 -1.777988 -0.687117 14.743806 4.625630 1.020456 2.321085 -9.062658 0.000000 0.000000 0.000000 -26.713380 4.661821 -19.798316 -41.176674 15.324507 -7.221415 -8.881432 -18.348706 0.707009 0.000000 0.000000 0.000000 26.786764 -6.939539 7.251181 37.042491 17.646162 -2.723086 -3.379681 36.254922 2.893195 0.000000 0.000000 0.000000 
-1.879913 0.919691 2.040512 -1.173275 59.280141 0.512679 -3.506556 -2.188512 -15.925401 -6.037247 -1.195849 13.120372 4.744054 10.614842 4.617940 0.000000 0.000000 0.000000 -10.460736 -2.847986 9.562696 -8.380397 -3.986265 33.145104 7.397282 7.090155 38.116902 0.000000 0.000000 0.000000 -1.969124 -0.520677 8.676509 3.591344 -1.021709 -4.151837 -1.013055 12.851984 5.609255 0.618317 2.826606 -9.426752 0.000000 0.000000 0.000000 -26.597263 2.854840 -20.453220 -42.197301 15.551076 -7.234314 -13.392790 -18.854454 1.219999 0.000000 0.000000 0.000000 26.263846 -9.631870 6.129616 40.198422 14.818854 -3.458459 -1.391317 34.487937 3.465869 0.000000 0.000000 0.000000 
-1.820884 0.926806 2.043941 -1.717678 67.467614 -1.185652 -6.833695 -0.747802 -8.538730 -2.814239 -1.012096 9.507097 0.282622 1.585545 2.785065 0.000000 0.000000 0.000000 -8.081426 -2.079015 1.188304 -19.545874 -7.957332 50.472567 15.754596 9.667572 47.300241 0.000000 0.000000 0.000000 -0.798618 -0.867935 10.430514 4.908096 -1.712318 -3.815781 -2.578811 10.165081 4.440350 1.031176 2.500969 -9.191896 0.000000 0.000000 0.000000 -26.204569 -0.037542 -19.526718 -44.188841 12.903390 -6.448971 -17.299276 -20.777343 1.841735 0.000000 0.000000 0.000000 23.814786 -11.496409 3.959318 46.733593 10.975532 -3.290475 -0.192953 30.819046 3.346994 0.000000 0.000000 0.000000 
-1.767431 0.932706 2.051386 -5.355717 75.706397 -6.111528 -7.139424 0.163246 -0.192330 -0.847954 -0.589758 4.367951 -4.751837 -6.201448 3.158513 0.000000 0.000000 0.000000 -3.793954 -1.483778 -8.750377 -32.757846 -9.895282 65.323109 18.677903 11.201254 46.570023 0.000000 0.000000 0.000000 0.035386 -1.198435 11.606408 6.203757 -2.191723 -4.348405 -3.427222 5.352998 4.713431 1.276793 2.833773 -10.284363 0.000000 0.000000 0.000000 -24.753573 -2.638445 -17.644374 -47.122116 8.774259 -5.555887 -20.778385 -23.931234 2.508481 0.000000 0.000000 0.000000 25.025441 -12.994645 3.458200 48.717328 10.000919 -3.831059 2.006025 23.756605 2.505309 0.000000 0.000000 0.000000 
